HIERARCHY
ROOT Hips
{
	OFFSET 0.00000 0.00000 0.00000
	CHANNELS 6 Xposition Yposition Zposition Zrotation Yrotation Xrotation 
	JOINT RightUpLegDummy
	{
		OFFSET 0 0 0
		CHANNELS 3 Zrotation Yrotation Xrotation
		JOINT RightUpLeg
		{
			OFFSET -3.52197 -3.41223 0.04002
			CHANNELS 3 Zrotation Yrotation Xrotation
			JOINT RightLeg
			{
				OFFSET 0.00006 -17.42390 1.60435
				CHANNELS 3 Zrotation Yrotation Xrotation
				JOINT RightFoot
				{
					OFFSET 0.06153 -16.50078 -1.63901
					CHANNELS 3 Zrotation Yrotation Xrotation
					JOINT RightToes
					{
						OFFSET 0.00298 -1.73825 3.34613
						CHANNELS 3 Zrotation Yrotation Xrotation
						End Site
						{
							OFFSET 0.00480 -0.05416 3.85043
						}
					}
				}
			}
		}
	}
	JOINT SpineDummy
	{
		OFFSET 0 0 0
		CHANNELS 3 Zrotation Yrotation Xrotation
		JOINT Spine
		{
			OFFSET 0.00000 4.68130 0.00000
			CHANNELS 3 Zrotation Yrotation Xrotation
			JOINT Spine1
			{
				OFFSET -0.00000 10.10138 0.05002
				CHANNELS 3 Zrotation Yrotation Xrotation
				JOINT HEadDummy
				{
					OFFSET 0 0 0
					CHANNELS 3 Zrotation Yrotation Xrotation
					JOINT Head
					{
						OFFSET -0.00000 3.43865 0.00438
						CHANNELS 3 Zrotation Yrotation Xrotation
						End Site
						{
							OFFSET -0.11417 5.02924 0.98962
						}
					}
				}
				JOINT LeftShoulder1Dummy
				{
					OFFSET 0 0 0
					CHANNELS 3 Zrotation Yrotation Xrotation
					JOINT LeftShoulder1
					{
						OFFSET 3.53937 -0.14262 -0.08662
						CHANNELS 3 Zrotation Yrotation Xrotation
						JOINT LeftArm
						{
							OFFSET 4.04833 -0.00133 0.12681
							CHANNELS 3 Zrotation Yrotation Xrotation
							JOINT LeftForeArm
							{
								OFFSET 10.33880 -0.01036 -0.55515
								CHANNELS 3 Zrotation Yrotation Xrotation
								JOINT LeftHand
								{
									OFFSET 8.69677 0.07543 0.40060
									CHANNELS 3 Zrotation Yrotation Xrotation
									End Site
									{
										OFFSET 5.28377 -0.21905 0.59205
									}
								}
							}
						}
					}
				}
				JOINT RightShoulderDummy
				{
					OFFSET 0 0 0
					CHANNELS 3 Zrotation Yrotation Xrotation
					JOINT RightShoulder
					{
						OFFSET -3.53937 -0.14262 -0.08660
						CHANNELS 3 Zrotation Yrotation Xrotation
						JOINT RightArm
						{
							OFFSET -4.04833 -0.00133 0.12683
							CHANNELS 3 Zrotation Yrotation Xrotation
							JOINT RightForeArm
							{
								OFFSET -10.37987 -0.01039 -0.55511
								CHANNELS 3 Zrotation Yrotation Xrotation
								JOINT RightHand
								{
									OFFSET -8.67398 0.07538 0.40058
									CHANNELS 3 Zrotation Yrotation Xrotation
									End Site
									{
										OFFSET -5.24810 -0.21916 0.59204
									}
								}
							}
						}
					}
				}
			}
		}
	}
	JOINT LeftUpLegDummy
	{
		OFFSET 0 0 0
		CHANNELS 3 Zrotation Yrotation Xrotation
		JOINT LeftUpLeg
		{
			OFFSET 3.52197 -3.41223 0.04002
			CHANNELS 3 Zrotation Yrotation Xrotation
			JOINT LeftLeg
			{
				OFFSET -0.00012 -17.42399 1.60337
				CHANNELS 3 Zrotation Yrotation Xrotation
				JOINT LeftFoot
				{
					OFFSET -0.09972 -16.50070 -1.63802
					CHANNELS 3 Zrotation Yrotation Xrotation
					JOINT LeftToes
					{
						OFFSET -0.01575 -1.73823 3.34611
						CHANNELS 3 Zrotation Yrotation Xrotation
						End Site
						{
							OFFSET 0.03150 -0.01868 3.85031
						}
					}
				}
			}
		}
	}
}
MOTION
Frames: 16
Frame Time: 0.033333
42.2678 39.7853 84.0338 -179.6320 -3.0034 178.5060 0.0000 0.0000 0.0000 3.9216 -0.7212 0.5065 -0.8130 -5.8325 4.3674 -5.2283 0.3167 -3.8524 0.0000 -0.0000 -0.0000 0.0000 0.0000 0.0000 1.9561 -0.3286 0.9331 1.8816 -0.8094 1.2237 -0.0000 0.0000 -0.0000 -1.6645 6.5040 -3.4080 -0.0000 0.0000 -0.0000 -33.9711 -2.4775 2.3892 -44.8172 -15.2181 -18.2766 -10.0805 5.1561 47.2720 12.7766 -4.4006 -1.0429 -0.0000 0.0000 -0.0000 34.1184 5.0471 3.4314 40.3671 6.4751 -17.7894 10.2762 -1.2953 23.7455 -12.9599 -0.8195 -0.5148 0.0000 0.0000 0.0000 -0.0826 0.8254 0.1532 0.5309 1.3981 7.0059 3.3286 -0.1354 -5.4577 0.0000 0.0000 -0.0000
42.2705 39.7851 84.0287 -179.6700 -2.9862 178.4670 0.0000 0.0000 0.0000 3.8518 -0.8092 0.5394 -0.7394 -5.7414 4.4092 -5.3157 0.3224 -3.9000 0.0000 -0.0000 -0.0000 0.0000 0.0000 0.0000 1.8621 -0.3058 0.9511 1.9731 -0.7998 1.2453 -0.0000 0.0000 -0.0000 -1.6905 6.5432 -3.4060 -0.0000 0.0000 -0.0000 -33.9788 -2.4762 2.3892 -44.8551 -15.2188 -18.3230 -10.0536 5.1573 47.2379 12.6074 -4.3723 -1.0256 -0.0000 0.0000 -0.0000 34.1455 5.0513 3.4355 40.2938 6.4864 -17.7775 10.2906 -1.3262 23.6525 -13.0669 -1.0190 -0.4980 0.0000 0.0000 0.0000 -0.2522 0.5545 0.2336 0.8250 1.6808 6.9518 3.2199 -0.1284 -5.4313 0.0000 0.0000 -0.0000
42.3207 39.7787 84.0021 -179.6890 -2.1214 178.2870 0.0000 0.0000 0.0000 3.9885 -0.6557 0.6832 -0.7906 -5.0689 4.5315 -5.4569 0.3316 -3.9590 0.0000 -0.0000 -0.0000 0.0000 0.0000 0.0000 1.7156 0.1091 1.0116 2.1416 -0.4008 1.4156 -0.0000 0.0000 -0.0000 -1.6990 6.6682 -3.3884 -0.0000 0.0000 -0.0000 -34.0272 -2.4609 2.3892 -44.8525 -15.1477 -18.2709 -10.0937 5.1624 47.0434 12.4856 -4.1629 -0.9942 -0.0000 0.0000 -0.0000 34.2175 5.0697 3.4491 40.1450 6.5873 -17.9101 10.2624 -1.5885 23.6575 -13.2250 -1.0026 -0.5060 0.0000 0.0000 0.0000 -0.1837 0.6772 0.5932 0.9428 2.4160 6.8973 3.0507 -0.1175 -5.5381 0.0000 0.0000 -0.0000
42.3276 39.7747 83.9993 -179.6890 -2.0733 178.2580 0.0000 0.0000 0.0000 4.0073 -0.6385 0.6771 -0.8088 -5.0467 4.6149 -5.4495 0.3313 -4.0083 0.0000 -0.0000 -0.0000 0.0000 0.0000 0.0000 1.8052 0.0765 0.9991 2.0549 -0.4232 1.5117 -0.0000 0.0000 -0.0000 -1.7589 6.7923 -3.4228 -0.0000 0.0000 -0.0000 -34.1208 -2.4314 2.3832 -44.7943 -15.0340 -18.1147 -10.1914 5.1667 46.8473 12.5101 -3.9345 -0.9734 -0.0000 0.0000 -0.0000 34.2126 5.0736 3.4502 40.0834 6.7377 -18.1829 10.1509 -1.9288 24.0699 -12.9261 -0.4321 -0.5524 0.0000 0.0000 0.0000 -0.1298 0.7639 0.6045 0.8648 2.3811 6.9613 2.9895 -0.1136 -5.6014 0.0000 0.0000 -0.0000
42.3402 39.7704 84.0002 -179.7210 -1.9808 178.2240 0.0000 0.0000 0.0000 4.0276 -0.5814 0.6400 -0.8848 -5.0091 4.7607 -5.3879 0.3275 -4.0731 0.0000 -0.0000 -0.0000 0.0000 0.0000 0.0000 1.7957 0.0735 1.0329 2.0279 -0.4212 1.5878 -0.0000 0.0000 -0.0000 -1.9271 6.8783 -3.5673 -0.0000 0.0000 -0.0000 -34.1887 -2.4013 2.3752 -44.7399 -14.9371 -18.0576 -10.2250 5.1655 46.8751 12.5054 -4.0530 -0.9848 -0.0000 0.0000 -0.0000 34.0985 5.0510 3.4313 40.1724 6.7748 -18.3654 10.0086 -1.9982 25.0410 -11.5525 0.6869 -0.5986 0.0000 0.0000 0.0000 -0.0139 1.0059 0.6354 0.6028 2.2436 6.9926 3.0318 -0.1163 -5.6576 0.0000 0.0000 -0.0000
42.3557 39.7674 84.0004 -179.7980 -1.9917 178.2290 0.0000 0.0000 0.0000 3.9890 -0.5720 0.5588 -0.9432 -5.0225 4.9243 -5.3506 0.3207 -4.1584 0.0000 -0.0000 -0.0000 0.0000 0.0000 0.0000 1.6425 0.0502 1.0334 2.0936 -0.4520 1.6195 -0.0000 0.0000 -0.0000 -2.1125 6.9901 -3.7604 -0.0000 0.0000 -0.0000 -34.2059 -2.3961 2.3742 -44.6828 -14.8908 -18.2641 -10.1121 5.1590 47.1562 12.4007 -4.5962 -1.0302 -0.0000 0.0000 -0.0000 34.0101 5.0322 3.4161 40.3515 6.6623 -18.0405 10.1083 -1.5656 24.9763 -10.6530 1.2085 -0.5952 0.0000 0.0000 0.0000 0.0072 1.1312 0.6583 0.4261 2.1331 6.9392 3.2200 -0.1284 -5.6252 0.0000 0.0000 -0.0000
42.3723 39.7664 83.9957 -179.8840 -2.0736 178.2430 0.0000 0.0000 0.0000 3.9287 -0.5985 0.5045 -0.9746 -5.0784 5.0340 -5.3548 0.3178 -4.2329 0.0000 -0.0000 -0.0000 0.0000 0.0000 0.0000 1.4403 0.0303 1.0089 2.2209 -0.4895 1.6290 -0.0000 0.0000 -0.0000 -2.1644 7.1205 -3.8407 -0.0000 0.0000 -0.0000 -34.2697 -2.4325 2.3926 -44.5592 -14.9197 -18.6374 -9.9088 5.1493 47.5793 12.3669 -5.2017 -1.0875 -0.0000 0.0000 -0.0000 34.0165 5.0343 3.4175 40.3871 6.5239 -17.8584 10.1700 -1.3339 24.9123 -10.3928 1.1984 -0.5790 0.0000 0.0000 0.0000 -0.0558 1.1119 0.7006 0.3994 2.1084 6.8378 3.5007 -0.1464 -5.5254 0.0000 0.0000 -0.0000
42.3870 39.7667 83.9891 -179.9350 -2.1614 178.2300 0.0000 0.0000 0.0000 3.9058 -0.6078 0.5207 -1.0074 -5.1648 5.0604 -5.3539 0.3156 -4.2642 0.0000 -0.0000 -0.0000 0.0000 0.0000 0.0000 1.2460 0.0567 1.0599 2.4448 -0.4971 1.5842 -0.0000 0.0000 -0.0000 -2.0587 7.1792 -3.7159 -0.0000 0.0000 -0.0000 -34.4732 -2.4895 2.4279 -44.3699 -14.9891 -18.8822 -9.7764 5.1397 47.9683 12.5176 -5.4586 -1.1271 -0.0000 0.0000 -0.0000 33.9755 5.0220 3.4091 40.3881 6.4046 -18.0128 10.1308 -1.4217 24.7524 -11.1836 0.6023 -0.5708 0.0000 0.0000 0.0000 -0.0997 1.0797 0.7577 0.4090 2.0889 6.7712 3.7186 -0.1604 -5.4463 0.0000 0.0000 -0.0000
42.4017 39.7679 83.9822 -179.9770 -2.2441 178.2230 0.0000 0.0000 0.0000 3.8972 -0.6029 0.5448 -1.0456 -5.2561 5.0570 -5.3527 0.3141 -4.2726 0.0000 -0.0000 -0.0000 0.0000 0.0000 0.0000 0.9869 0.0957 1.1698 2.8212 -0.5172 1.4672 -0.0000 0.0000 -0.0000 -1.9436 7.2364 -3.4845 -0.0000 0.0000 -0.0000 -34.8084 -2.5125 2.4577 -44.1464 -14.9398 -18.8046 -9.8476 5.1375 48.0181 12.6945 -5.3111 -1.1287 -0.0000 0.0000 -0.0000 33.7210 4.9665 3.3652 40.5712 6.2614 -18.1917 10.0720 -1.4818 24.6004 -12.1850 -0.0672 -0.5581 0.0000 0.0000 0.0000 -0.1116 1.0836 0.7962 0.3801 2.0236 6.7211 3.7619 -0.1632 -5.4115 0.0000 0.0000 -0.0000
42.4214 39.7704 83.9718 179.9310 -2.3272 178.2740 0.0000 0.0000 0.0000 3.8377 -0.6224 0.4991 -1.0742 -5.3137 5.0866 -5.3554 0.3133 -4.3003 0.0000 -0.0000 -0.0000 0.0000 0.0000 0.0000 0.6545 0.0826 1.2010 3.1947 -0.5875 1.3477 -0.0000 0.0000 -0.0000 -1.9233 7.3992 -3.3076 -0.0000 0.0000 -0.0000 -35.0937 -2.4896 2.4658 -43.9585 -14.6938 -18.5403 -10.0526 5.1460 47.6362 12.7182 -5.0315 -1.1024 -0.0000 0.0000 -0.0000 33.4229 4.9122 3.3183 40.8558 6.0740 -18.0346 10.1112 -1.2544 24.5999 -12.4024 -0.2543 -0.5493 0.0000 0.0000 0.0000 -0.1628 1.0677 0.8156 0.3358 1.9626 6.5882 3.6915 -0.1587 -5.3584 0.0000 0.0000 -0.0000
42.4450 39.7734 83.9614 179.8090 -2.3798 178.3530 0.0000 0.0000 0.0000 3.7513 -0.6528 0.4187 -1.0949 -5.3285 5.1239 -5.3789 0.3141 -4.3324 0.0000 -0.0000 -0.0000 0.0000 0.0000 0.0000 0.3381 0.0678 1.2380 3.4389 -0.6311 1.1453 -0.0000 0.0000 -0.0000 -1.9934 7.4690 -3.1613 -0.0000 0.0000 -0.0000 -35.2364 -2.4839 2.4722 -43.8450 -14.3901 -18.3967 -10.1880 5.1553 47.2533 12.6250 -4.9109 -1.0817 -0.0000 0.0000 -0.0000 33.3373 4.9034 3.3076 40.9761 5.8036 -17.7147 10.2074 -0.8956 24.7952 -11.8081 0.2597 -0.5706 0.0000 0.0000 0.0000 -0.2451 1.0314 0.8407 0.2988 1.9429 6.3888 3.6559 -0.1564 -5.2654 0.0000 0.0000 -0.0000
42.4660 39.7754 83.9601 179.7580 -2.3757 178.3860 0.0000 0.0000 0.0000 3.7440 -0.6359 0.3945 -1.1206 -5.3423 5.1038 -5.4066 0.3153 -4.3187 0.0000 -0.0000 -0.0000 0.0000 0.0000 0.0000 0.1691 0.1172 1.3576 3.5701 -0.5917 0.9383 -0.0000 0.0000 -0.0000 -2.1037 7.2218 -3.0044 -0.0000 0.0000 -0.0000 -35.2573 -2.5175 2.4873 -43.8511 -14.2994 -18.4887 -10.1533 5.1561 47.2396 12.5159 -5.0250 -1.0833 -0.0000 0.0000 -0.0000 33.4002 4.9147 3.3174 40.9185 5.6193 -17.6780 10.2078 -0.7920 25.1833 -11.0495 1.3100 -0.6263 0.0000 0.0000 0.0000 -0.2497 1.0516 0.8574 0.2531 1.9134 6.2877 3.6968 -0.1590 -5.2093 0.0000 0.0000 -0.0000
42.4804 39.7745 83.9658 179.8050 -2.3570 178.3650 0.0000 0.0000 0.0000 3.8335 -0.5719 0.4240 -1.1487 -5.3949 5.0619 -5.4215 0.3159 -4.2823 0.0000 -0.0000 -0.0000 0.0000 0.0000 0.0000 0.1527 0.2022 1.4954 3.6705 -0.5206 0.8660 -0.0000 0.0000 -0.0000 -2.2224 6.7811 -2.9098 -0.0000 0.0000 -0.0000 -35.2256 -2.5418 2.4954 -43.9568 -14.4407 -18.6414 -10.0588 5.1541 47.3509 12.4322 -5.2077 -1.0928 -0.0000 0.0000 -0.0000 33.4060 4.9035 3.3134 40.8615 5.6494 -17.9077 10.1250 -0.9551 25.3837 -10.8079 2.0074 -0.6725 0.0000 0.0000 0.0000 -0.1519 1.1351 0.8328 0.2010 1.8261 6.3616 3.7149 -0.1602 -5.2474 0.0000 0.0000 -0.0000
42.4913 39.7700 83.9658 179.8590 -2.3900 178.3450 0.0000 0.0000 0.0000 3.9160 -0.5224 0.4199 -1.1758 -5.4819 5.1139 -5.4191 0.3157 -4.3079 0.0000 -0.0000 -0.0000 0.0000 0.0000 0.0000 0.1705 0.2452 1.5674 3.7503 -0.4936 0.8942 -0.0000 0.0000 -0.0000 -2.3059 6.4593 -2.9518 -0.0000 0.0000 -0.0000 -35.1914 -2.5338 2.4900 -44.0580 -14.5742 -18.7061 -10.0255 5.1586 47.2060 12.4100 -5.2725 -1.0987 -0.0000 0.0000 -0.0000 33.3665 4.8822 3.3017 40.8293 5.7978 -18.0632 10.1001 -1.1573 25.0308 -11.3612 1.5278 -0.6631 0.0000 0.0000 0.0000 -0.0593 1.1994 0.7793 0.1656 1.7097 6.4987 3.6347 -0.1550 -5.3349 0.0000 0.0000 -0.0000
42.5012 39.7632 83.9584 179.8580 -2.4844 178.3280 0.0000 0.0000 0.0000 3.9342 -0.5126 0.3769 -1.2110 -5.5858 5.2741 -5.4007 0.3148 -4.4067 0.0000 -0.0000 -0.0000 0.0000 0.0000 0.0000 0.2483 0.1995 1.6052 3.6288 -0.5207 0.9144 -0.0000 0.0000 -0.0000 -2.2244 6.3933 -3.0770 -0.0000 0.0000 -0.0000 -35.0974 -2.5208 2.4788 -44.1092 -14.6039 -18.7804 -9.9922 5.1648 46.9997 12.4406 -5.2689 -1.0977 -0.0000 0.0000 -0.0000 33.4864 4.8999 3.3188 40.6881 5.9676 -18.1159 10.1390 -1.4037 24.4914 -12.2010 0.5146 -0.6159 0.0000 0.0000 0.0000 -0.0374 1.2081 0.7457 0.1504 1.6043 6.6072 3.5213 -0.1477 -5.4111 0.0000 0.0000 -0.0000
42.5133 39.7550 83.9578 179.8860 -2.5276 178.2520 0.0000 0.0000 0.0000 4.0032 -0.4604 0.3985 -1.2721 -5.6859 5.4041 -5.3782 0.3137 -4.4785 0.0000 -0.0000 -0.0000 0.0000 0.0000 0.0000 0.4473 0.1575 1.7609 3.3599 -0.5166 0.8441 -0.0000 0.0000 -0.0000 -1.9683 6.4728 -3.1496 -0.0000 0.0000 -0.0000 -34.9951 -2.5372 2.4793 -44.0995 -14.6724 -18.9603 -9.8792 5.1620 47.1452 12.4050 -5.3787 -1.0996 -0.0000 0.0000 -0.0000 33.6882 4.9361 3.3503 40.5257 6.1081 -18.2554 10.1256 -1.6460 24.3646 -12.4126 0.3531 -0.6099 0.0000 0.0000 0.0000 0.0291 1.2613 0.7442 0.1220 1.5173 6.7756 3.4830 -0.1453 -5.5033 0.0000 0.0000 -0.0000
